HIERARCHY
ROOT Hips
{
  OFFSET 52.9416 93.7549 6.27764
  CHANNELS 6 Xposition Yposition Zposition Zrotation Xrotation Yrotation
  JOINT spine
  {
    OFFSET 0 7.4756 0.429885
    CHANNELS 3 Zrotation Xrotation Yrotation
    JOINT spine1
    {
      OFFSET 0 9.92301 0
      CHANNELS 3 Zrotation Xrotation Yrotation
      JOINT spine2
      {
        OFFSET 0 9.50804 0
        CHANNELS 3 Zrotation Xrotation Yrotation
        JOINT Neck
        {
          OFFSET 0 24.4111 1.16384
          CHANNELS 3 Zrotation Xrotation Yrotation
          JOINT Head
          {
            OFFSET 0 7.37523 0
            CHANNELS 3 Zrotation Xrotation Yrotation
            End Site
            {
              OFFSET 0 17.8522 -5.88741
            }
          }
        }
        JOINT RightShoulder
        {
          OFFSET -4.00356 10.2679 -0.557468
          CHANNELS 3 Zrotation Xrotation Yrotation
          JOINT RightArm
          {
            OFFSET 0 13.4673 0
            CHANNELS 3 Zrotation Xrotation Yrotation
            JOINT RightArmRoll
            {
              OFFSET 0 6.79858 0
              CHANNELS 3 Zrotation Xrotation Yrotation
              JOINT RightForeArm
              {
                OFFSET 0 19.8018 0
                CHANNELS 3 Zrotation Xrotation Yrotation
                JOINT RightForeArmRoll
                {
                  OFFSET 0 7.62905 0
                  CHANNELS 3 Zrotation Xrotation Yrotation
                  JOINT RightHand
                  {
                    OFFSET 0 15.3098 0
                    CHANNELS 3 Zrotation Xrotation Yrotation
                    End Site
                    {
                      OFFSET 0 0 0
                    }
                  }
                }
              }
            }
          }
        }
        JOINT LeftShoulder
        {
          OFFSET 4.00356 10.2679 -0.557468
          CHANNELS 3 Zrotation Xrotation Yrotation
          JOINT LeftArm
          {
            OFFSET 0 13.4673 0
            CHANNELS 3 Zrotation Xrotation Yrotation
            JOINT LeftArmRoll
            {
              OFFSET 0 6.79858 0
              CHANNELS 3 Zrotation Xrotation Yrotation
              JOINT LeftForeArm
              {
                OFFSET 0 19.8018 0
                CHANNELS 3 Zrotation Xrotation Yrotation
                JOINT LeftForeArmRoll
                {
                  OFFSET 0 7.62905 0
                  CHANNELS 3 Zrotation Xrotation Yrotation
                  JOINT LeftHand
                  {
                    OFFSET 0 15.3098 0
                    CHANNELS 3 Zrotation Xrotation Yrotation
                    End Site
                    {
                      OFFSET 0 0 0
                    }
                  }
                }
              }
            }
          }
        }
      }
    }
  }
  JOINT RightUpLeg
  {
    OFFSET -6.62609 -1.21505 -1.01927
    CHANNELS 3 Zrotation Xrotation Yrotation
    JOINT RightUpLegRoll
    {
      OFFSET 0 17.9517 0
      CHANNELS 3 Zrotation Xrotation Yrotation
      JOINT RightLeg
      {
        OFFSET 0 -22.2304 0
        CHANNELS 3 Zrotation Xrotation Yrotation
        JOINT RightLegRoll
        {
          OFFSET 0 22.3032 0
          CHANNELS 3 Zrotation Xrotation Yrotation
          JOINT RightFoot
          {
            OFFSET 0 18.5636 0
            CHANNELS 3 Zrotation Xrotation Yrotation
            JOINT RightToeBase
            {
              OFFSET 0 15.5183 0
              CHANNELS 3 Zrotation Xrotation Yrotation
              End Site
              {
                OFFSET 0.00657761 7.51538 -0.866263
              }
            }
          }
        }
      }
    }
  }
  JOINT LeftUpLeg
  {
    OFFSET 6.62609 -1.21505 -1.01927
    CHANNELS 3 Zrotation Xrotation Yrotation
    JOINT LeftUpLegRoll
    {
      OFFSET 0 17.9518 0
      CHANNELS 3 Zrotation Xrotation Yrotation
      JOINT LeftLeg
      {
        OFFSET 0 22.2303 0
        CHANNELS 3 Zrotation Xrotation Yrotation
        JOINT LeftLegRoll
        {
          OFFSET 0 22.5093 0
          CHANNELS 3 Zrotation Xrotation Yrotation
          JOINT LeftFoot
          {
            OFFSET 0 18.3575 0
            CHANNELS 3 Zrotation Xrotation Yrotation
            JOINT LeftToeBase
            {
              OFFSET 0 15.5183 0
              CHANNELS 3 Zrotation Xrotation Yrotation
              End Site
              {
                OFFSET -0.029478 7.51539 -0.866263
              }
            }
          }
        }
      }
    }
  }
}
MOTION
Frames: 9
Frame Time: 0.00208333
54.534 93.4963 6.42893 -1.44484 -4.44819 -2.96011 0.318487 -1.3501 -0.0128518 0.630023 1.30233 -0.0728846 0.631355 2.94736 -0.0834793 -10.0246 12.3886 -0.343038 10.5484 2.60218 -2.1612 67.2903 -1.48633 -1.79561 103.417 13.7339 19.6855 4.09798e-007 7.86715e-007 -3.36803e-006 5.44768 0.0456019 -1.38595 4.74388e-006 -5.86049e-006 -3.0706 8.02951 -4.95141 0.697657 -78.1337 -0.652775 2.47807 -94.3416 4.59359 -19.957 1.91785e-007 -4.1435e-007 3.53106e-006 -7.2714 8.36546 1.43682 -7.61621e-007 -7.3469e-007 3.00001 -8.02923 -4.95145 -0.697675 178.561 -0.190981 -0.321069 180 7.01541e-015 178.899 178.522 9.47131 179.657 -1.96287e-006 -4.96196e-006 0.191652 -20.0251 69.6163 20.9784 8.13649 25.2327 -3.48773 -177.207 -2.94216 1.45681 4.54188e-006 -4.6773e-006 -1.12559 -2.41173 -7.26781 0.0844803 -8.79545e-007 1.71722e-006 -0.0358923 17.3549 66.2218 -18.1674 -8.15691 25.5471 3.37468 
54.527 93.4928 6.42315 -1.44865 -4.45993 -2.96608 0.318515 -1.35143 -0.0145238 0.630537 1.29966 -0.0749009 0.631893 2.94469 -0.0855058 -10.0144 12.4644 -0.324398 10.5471 2.59458 -2.14523 67.333 -1.46611 -1.78941 103.365 13.7597 19.6599 4.09798e-007 7.86715e-007 -3.36803e-006 5.47243 0.0456722 -1.38408 4.74388e-006 -5.86049e-006 -3.07068 8.02951 -4.95141 0.697657 -78.103 -0.674993 2.48404 -94.3615 4.66715 -19.8561 1.91785e-007 -4.1435e-007 3.53106e-006 -7.32258 8.5008 1.45272 -7.61621e-007 -7.3469e-007 3.00001 -8.02923 -4.95145 -0.697675 178.551 -0.214707 -0.297756 180 7.01541e-015 178.899 178.491 9.44143 179.661 -1.96287e-006 -4.96196e-006 0.190032 -20.0123 69.6032 20.9666 8.13649 25.2327 -3.48773 -177.203 -2.97231 1.45558 4.54188e-006 -4.6773e-006 -1.12559 -2.41202 -7.23992 0.0845159 -8.79545e-007 1.71722e-006 -0.0358786 17.358 66.2261 -18.1708 -8.15518 25.5209 3.38409 
54.5466 93.5056 6.42521 -1.45273 -4.4722 -2.97213 0.318602 -1.35266 -0.0162879 0.631188 1.29719 -0.0770246 0.632571 2.94222 -0.0876424 -10.0045 12.542 -0.305107 10.5458 2.58497 -2.12869 67.3764 -1.44567 -1.78315 103.311 13.7889 19.6399 4.09798e-007 7.86715e-007 -3.36803e-006 5.49305 0.0457074 -1.38315 4.74388e-006 -5.86049e-006 -3.07091 8.02951 -4.95141 0.697657 -78.0718 -0.696897 2.48984 -94.3824 4.73946 -19.7546 1.91785e-007 -4.1435e-007 3.53106e-006 -7.37439 8.63761 1.46873 -7.61621e-007 -7.3469e-007 3.00001 -8.02923 -4.95145 -0.697675 178.541 -0.239082 -0.273652 180 7.01541e-015 178.899 178.459 9.41114 179.666 -1.96287e-006 -4.96196e-006 0.188377 -19.9994 69.59 20.9547 8.13649 25.2327 -3.48773 -177.198 -3.00326 1.45418 4.54188e-006 -4.6773e-006 -1.12559 -2.41225 -7.21161 0.0845741 -8.79545e-007 1.71722e-006 -0.0358583 17.3609 66.23 -18.174 -8.15344 25.4947 3.39349 
54.5319 93.4949 6.41228 -1.45702 -4.48484 -2.97825 0.318732 -1.35382 -0.0181165 0.631937 1.29486 -0.0792236 0.633347 2.93989 -0.089856 -9.99502 12.6209 -0.285356 10.5445 2.57395 -2.11173 67.4203 -1.42506 -1.77686 103.256 13.8207 19.6237 4.09798e-007 7.86715e-007 -3.36803e-006 5.5108 0.0457182 -1.38286 4.74388e-006 -5.86049e-006 -3.07123 8.02951 -4.95141 0.697657 -78.0403 -0.718583 2.49551 -94.4041 4.81093 -19.6528 1.91785e-007 -4.1435e-007 3.53106e-006 -7.42666 8.77543 1.48483 -7.61621e-007 -7.3469e-007 3.00001 -8.02923 -4.95145 -0.697675 178.53 -0.263912 -0.248993 180 7.01541e-015 178.899 178.426 9.38058 179.67 -1.96287e-006 -4.96196e-006 0.186699 -19.9862 69.5765 20.9427 8.13649 25.2327 -3.48773 -177.193 -3.03477 1.45265 4.54188e-006 -4.6773e-006 -1.12559 -2.41245 -7.18302 0.084648 -8.79545e-007 1.71722e-006 -0.0358333 17.3636 66.2337 -18.177 -8.15168 25.4685 3.40288 
54.5405 93.5007 6.42708 -1.46142 -4.4977 -2.9844 0.318885 -1.35495 -0.0199819 0.632742 1.2926 -0.0814656 0.63418 2.93763 -0.0921137 -9.98571 12.7005 -0.265338 10.5433 2.56212 -2.09453 67.4644 -1.40436 -1.77054 103.2 13.8538 19.6098 4.09798e-007 7.86715e-007 -3.36803e-006 5.52689 0.0457149 -1.38295 4.74388e-006 -5.86049e-006 -3.0716 8.02951 -4.95141 0.697657 -78.0085 -0.740143 2.50111 -94.4263 4.88194 -19.5508 1.91785e-007 -4.1435e-007 3.53106e-006 -7.47922 8.91383 1.501 -7.61621e-007 -7.3469e-007 3.00001 -8.02923 -4.95145 -0.697675 178.52 -0.289002 -0.224017 180 7.01541e-015 178.899 178.393 9.34984 179.675 -1.96287e-006 -4.96196e-006 0.185006 -19.973 69.563 20.9306 8.13649 25.2327 -3.48773 -177.188 -3.0666 1.45106 4.54188e-006 -4.6773e-006 -1.12558 -2.41262 -7.15425 0.084731 -8.79545e-007 1.71722e-006 -0.0358057 17.3662 66.2371 -18.1798 -8.14992 25.4423 3.41228 
54.5415 93.5022 6.41623 -1.46585 -4.51061 -2.99055 0.319045 -1.35607 -0.0218566 0.63356 1.29036 -0.0837183 0.635026 2.93539 -0.0943824 -9.97648 12.7803 -0.245243 10.542 2.55009 -2.07728 67.5086 -1.38363 -1.76422 103.145 13.8874 19.5964 4.09798e-007 7.86715e-007 -3.36803e-006 5.54258 0.0457082 -1.38314 4.74388e-006 -5.86049e-006 -3.07199 8.02951 -4.95141 0.697657 -77.9768 -0.761672 2.50669 -94.4489 4.95288 -19.4487 1.91785e-007 -4.1435e-007 3.53106e-006 -7.53192 9.05238 1.5172 -7.61621e-007 -7.3469e-007 3.00001 -8.02923 -4.95145 -0.697675 178.51 -0.314157 -0.198961 180 7.01541e-015 178.899 178.36 9.31909 179.679 -1.96287e-006 -4.96196e-006 0.18331 -19.9599 69.5495 20.9185 8.13649 25.2327 -3.48773 -177.184 -3.0985 1.44944 4.54188e-006 -4.6773e-006 -1.12558 -2.4128 -7.12545 0.0848162 -8.79544e-007 1.71722e-006 -0.0357774 17.3688 66.2405 -18.1827 -8.14815 25.4161 3.42167 
54.5453 93.5037 6.43059 -1.47022 -4.52341 -2.99669 0.319192 -1.3572 -0.0237128 0.63435 1.28809 -0.0859496 0.635844 2.93311 -0.0966291 -9.96724 12.8597 -0.225264 10.5408 2.53847 -2.06015 67.5527 -1.36295 -1.75791 103.09 13.9202 19.5819 4.09798e-007 7.86715e-007 -3.36803e-006 5.55909 0.0457084 -1.38313 4.74388e-006 -5.86049e-006 -3.07235 8.02951 -4.95141 0.697657 -77.9451 -0.783263 2.51231 -94.4716 5.02416 -19.3468 1.91785e-007 -4.1435e-007 3.53106e-006 -7.58459 9.19063 1.53339 -7.61621e-007 -7.3469e-007 3.00001 -8.02923 -4.95145 -0.697675 178.499 -0.339181 -0.174065 180 7.01541e-015 178.899 178.326 9.2884 179.684 -1.96287e-006 -4.96196e-006 0.181621 -19.9467 69.536 20.9064 8.13649 25.2327 -3.48773 -177.179 -3.13025 1.44786 4.54188e-006 -4.6773e-006 -1.12558 -2.41298 -7.09672 0.084897 -8.79544e-007 1.71722e-006 -0.0357504 17.3714 66.2439 -18.1856 -8.14637 25.3899 3.43106 
54.5402 93.5109 6.4231 -1.47446 -4.53595 -3.00279 0.31931 -1.35839 -0.025523 0.635071 1.28571 -0.088127 0.636591 2.93074 -0.0988207 -9.95787 12.9382 -0.205594 10.5395 2.52785 -2.04331 67.5964 -1.34239 -1.75163 103.035 13.9512 19.5647 4.09798e-007 7.86715e-007 -3.36803e-006 5.57765 0.0457262 -1.38266 4.74388e-006 -5.86049e-006 -3.07264 8.02951 -4.95141 0.697657 -77.9136 -0.80501 2.51802 -94.4941 5.09617 -19.2451 1.91785e-007 -4.1435e-007 3.53106e-006 -7.63706 9.32815 1.54956 -7.61621e-007 -7.3469e-007 3.00001 -8.02923 -4.95145 -0.697675 178.489 -0.363882 -0.149564 180 7.01541e-015 178.899 178.294 9.25789 179.689 -1.96287e-006 -4.96196e-006 0.179949 -19.9337 69.5226 20.8945 8.13649 25.2327 -3.48773 -177.174 -3.1616 1.44637 4.54188e-006 -4.6773e-006 -1.12558 -2.41319 -7.06821 0.0849665 -8.79545e-007 1.71722e-006 -0.0357268 17.3741 66.2477 -18.1886 -8.14458 25.3637 3.44044 
54.5497 93.5091 6.43553 -1.47848 -4.54806 -3.00882 0.319379 -1.35965 -0.0272595 0.63568 1.28318 -0.0902185 0.637226 2.92821 -0.100924 -9.94826 13.0153 -0.186426 10.5383 2.51884 -2.02694 67.6396 -1.32201 -1.74539 102.982 13.9795 19.543 4.09798e-007 7.86715e-007 -3.36803e-006 5.59952 0.0457719 -1.38145 4.74388e-006 -5.86049e-006 -3.07283 8.02951 -4.95141 0.697657 -77.8825 -0.827008 2.52387 -94.5163 5.16931 -19.1438 1.91785e-007 -4.1435e-007 3.53106e-006 -7.68917 9.4645 1.56567 -7.61621e-007 -7.3469e-007 3.00001 -8.02923 -4.95145 -0.697675 178.479 -0.388062 -0.125696 180 7.01541e-015 178.898 178.262 9.22774 179.693 -1.96287e-006 -4.96196e-006 0.178305 -19.9209 69.5094 20.8827 8.13649 25.2327 -3.48773 -177.17 -3.19231 1.44502 4.54188e-006 -4.6773e-006 -1.12557 -2.41344 -7.04003 0.0850179 -8.79544e-007 1.71722e-006 -0.0357085 17.3771 66.2517 -18.1919 -8.14278 25.3375 3.44982 
